<svg xmlns="http://www.w3.org/2000/svg" viewBox="-50 -50 330 100">
  <!-- cell -->
  <g transform="scale(0.9)">
    <!-- wall -->
    <path
      fill="#d8a9e0"
      transform="rotate(15)"
      d="M9.38 -45.5L9.38 -45.5C12.18 -41.44 17.22 -39.62 21.98 -40.88L21.98 -40.88C29.68 -43.12 37.24 -36.82 36.4 -28.7V-28.7C35.84 -23.8 38.64 -19.18 43.12 -17.08L43.12 -17.08C50.4 -13.86 52.22 -4.2 46.34 1.4L46.34 1.4C42.84 4.76 41.86 10.08 43.96 14.56L43.96 14.56C47.46 21.84 42.56 30.38 34.58 30.94H34.58C29.68 31.36 25.62 34.72 24.36 39.48L24.36 39.48C22.4 47.32 13.16 50.68 6.58 45.92L6.58 45.92C2.66 42.98 -2.8 42.98 -6.72 45.92L-6.72 45.92C-13.3 50.68 -22.54 47.32 -24.5 39.48L-24.5 39.48C-25.76 34.72 -29.82 31.22 -34.72 30.94H-34.72C-42.7 30.38 -47.6 21.84 -44.1 14.56L-44.1 14.56C-42 10.08 -42.84 4.9 -46.48 1.4L-46.48 1.4C-52.22 -4.2 -50.54 -13.86 -43.26 -17.22L-43.26 -17.22C-38.78 -19.18 -36.12 -23.94 -36.54 -28.84L-36.54 -28.84C-37.38 -36.82 -29.82 -43.12 -22.12 -41.02L-22.12 -41.02C-17.36 -39.62 -12.32 -41.58 -9.52 -45.64L-9.52 -45.64C-4.9 -52.08 4.9 -52.08 9.38 -45.5Z"
    />
    <!-- nucleus -->
    <circle fill="#ffffff" opacity="0.5" cx="0" cy="0" r="20" />
    <!-- floaties -->
    <path
      fill="none"
      stroke="#ffffff"
      stroke-width="5"
      stroke-linecap="round"
      opacity="0.2"
      transform="rotate(20)"
      d="M -34 -10 a 35 35 0 0 0 0 20"
    />
    <path
      fill="none"
      stroke="#ffffff"
      stroke-width="5"
      stroke-linecap="round"
      opacity="0.2"
      transform="rotate(-120)"
      d="M -34 -5 a 35 35 0 0 0 0 10"
    />
    <path
      fill="none"
      stroke="#ffffff"
      stroke-width="5"
      stroke-linecap="round"
      opacity="0.2"
      transform="rotate(-80)"
      d="M -35 -5 a 35 35 0 0 0 0 10"
    />
    <path
      fill="none"
      stroke="#ffffff"
      stroke-width="5"
      stroke-linecap="round"
      opacity="0.2"
      transform="rotate(110)"
      d="M -38 -2.55 a 35 35 0 0 0 0 5"
    />
  </g>

  <!-- pickaxe -->
  <g transform="scale(0.9) rotate(45)">
    <!-- shaft -->
    <rect fill="#8c5845" x="-4" y="-35" width="8" height="65" rx="4" ry="4" />
    <!-- shaft highlight -->
    <rect
      fill="#ffffff"
      opacity="0.15"
      x="-4"
      y="5"
      width="8"
      height="25"
      rx="4"
      ry="4"
    />
    <!-- blade -->
    <path
      fill="#404050"
      d="
        M -30 -15
        A 40 40 0 0 1 30 -15
        A 1.9 1.9 0 0 1 28 -12
        A 80 80 0 0 0 -28 -12
        A 1.9 1.9 0 0 1 -30 -15
        z
      "
    />
    <!-- blade highlight -->
    <path
      fill="#ffffff"
      opacity="0.1"
      d="
        M -30 -15
        A 60 60 0 0 1 30 -15
        A 1.9 1.9 0 0 1 28 -12
        A 80 80 0 0 0 -28 -12
        A 1.9 1.9 0 0 1 -30 -15
        z
      "
    />
    <!-- connector -->
    <rect fill="#707080" x="-6" y="-30" width="12" height="16" rx="3" ry="3" />
    <!-- band -->
    <rect fill="#e6ae87" x="-7" y="-10" width="14" height="6" rx="3" ry="3" />
    <!-- band highlight -->
    <rect
      fill="#ffffff"
      opacity="0.2"
      x="0"
      y="-10"
      width="7"
      height="6"
      rx="3"
      ry="3"
    />
  </g>

  <!-- text -->
  <g>
    <!-- py -->
    <g fill="#505060" transform="translate(65, -22)">
      <path
        d="M3,5h8.7c3,0,5.2,0.8,6.7,2.3s2.3,3.6,2.3,6.2c0,2.5-0.8,4.6-2.3,6.2S14.7,22,11.7,22H6.2v11.3H3V5zM11.7,19.4c2.2,0,3.7-0.6,4.6-1.7c0.9-1.1,1.3-2.5,1.3-4.2s-0.4-3-1.3-4.2c-0.9-1.1-2.4-1.7-4.6-1.7H6.2v11.7H11.7z"
      />
      <path
        d="M22.5,38.9c0.3,0.1,0.7,0.2,1.1,0.2s0.8,0.1,1.2,0.1c0.9,0,1.7-0.4,2.3-1.2c0.7-0.8,1.4-2.4,2.1-4.6v0l-7.4-19.6h3.1l4.9,13.4c0.2,0.5,0.3,1,0.5,1.4s0.3,0.8,0.3,1.2h0.1c0.1-0.4,0.2-0.8,0.4-1.2c0.1-0.4,0.3-0.9,0.5-1.4l4.7-13.4h3L31,36.1c-0.7,1.9-1.5,3.3-2.4,4.3c-1,1-2.2,1.5-3.6,1.5c-0.5,0-0.9,0-1.3-0.1c-0.4-0.1-0.8-0.2-1.1-0.3V38.9z"
      />
    </g>
    <!-- cytominer -->
    <g fill="#ba68c8" transform="translate(60, -22)">
      <path
        d="M48.9,18.3c0-4.6,1-8,3.1-10.4c2.1-2.4,4.7-3.5,7.9-3.5c3.2,0,5.7,0.9,7.5,2.6c1.8,1.8,2.7,4,2.7,6.7v0.3h-3.2v-0.3c0-2-0.6-3.6-1.7-4.8c-1.1-1.2-2.9-1.8-5.2-1.8c-2.4,0-4.3,0.9-5.7,2.7s-2.2,4.6-2.2,8.4V20c0,3.6,0.7,6.3,2.2,8.3c1.5,1.9,3.4,2.9,5.7,2.9c2.2,0,3.8-0.6,5-1.8c1.1-1.2,1.7-2.8,1.9-4.8l0-0.3h3.2l0,0.4c-0.2,2.6-1.1,4.8-2.8,6.6c-1.7,1.8-4.1,2.6-7.3,2.6c-3.3,0-6-1.2-8-3.5c-2-2.4-3.1-5.8-3.1-10.3V18.3z"
      />
      <path
        d="M72.4,38.9c0.3,0.1,0.7,0.2,1.1,0.2s0.8,0.1,1.2,0.1c0.9,0,1.7-0.4,2.3-1.2c0.7-0.8,1.4-2.4,2.1-4.6v0l-7.4-19.6h3.1l4.9,13.4c0.2,0.5,0.3,1,0.5,1.4s0.3,0.8,0.3,1.2h0.1c0.1-0.4,0.2-0.8,0.4-1.2c0.1-0.4,0.3-0.9,0.5-1.4l4.7-13.4h3l-8.2,22.3c-0.7,1.9-1.5,3.3-2.4,4.3c-1,1-2.2,1.5-3.6,1.5c-0.5,0-0.9,0-1.3-0.1c-0.4-0.1-0.8-0.2-1.1-0.3V38.9z"
      />
      <path
        d="M89.1,13.8h11v2.5h-11V13.8z M92.6,15.2v-0.5V8h3.1v20.3c0,1.1,0.2,1.9,0.6,2.3c0.4,0.4,1,0.6,1.8,0.6c0.4,0,0.7,0,1-0.1s0.7-0.2,1-0.3v2.6c-0.3,0.1-0.7,0.2-1.2,0.3s-1,0.1-1.6,0.1c-1.4,0-2.6-0.4-3.4-1.3s-1.3-2.3-1.3-4.2V15.2z"
      />
      <path
        d="M102.3,23.3c0-3,0.8-5.4,2.5-7.2s3.8-2.8,6.6-2.8c2.8,0,5,0.9,6.6,2.8s2.5,4.3,2.5,7.2v0.6c0,3-0.8,5.4-2.5,7.2s-3.9,2.8-6.6,2.8s-5-0.9-6.6-2.8s-2.5-4.3-2.5-7.2V23.3z M105.5,23.9c0,2.1,0.5,3.9,1.5,5.3s2.5,2.1,4.4,2.1s3.4-0.7,4.4-2.1s1.5-3.2,1.5-5.3v-0.6c0-2.1-0.5-3.9-1.5-5.3s-2.5-2.1-4.4-2.1S108,16.6,107,18s-1.5,3.2-1.5,5.3V23.9z"
      />
      <path
        d="M124.6,13.8h2.8l0.1,2.7h0.1c0.7-0.9,1.6-1.7,2.5-2.2s2.1-0.8,3.3-0.8c1.3,0,2.5,0.3,3.4,0.8s1.6,1.4,2.1,2.6h0.1c0.8-1.2,1.7-2,2.7-2.6s2.2-0.8,3.5-0.8c1.9,0,3.5,0.6,4.6,1.7s1.7,3,1.7,5.6v12.8h-3.1V20.6c0-1.7-0.3-2.8-1-3.5s-1.7-1-2.9-1c-1.1,0-2.1,0.3-2.9,0.9s-1.5,1.4-2,2.5v13.9h-3.1V20.6c0-1.7-0.3-2.8-1-3.5s-1.7-1-3-1c-1.1,0-2.1,0.3-2.9,1s-1.5,1.5-2,2.4v13.9h-3.1V13.8z"
      />
      <path
        d="M157.1,6c0.3-0.4,0.8-0.6,1.5-0.6s1.1,0.2,1.5,0.6s0.5,0.8,0.5,1.4c0,0.5-0.2,1-0.5,1.4s-0.8,0.6-1.5,0.6s-1.1-0.2-1.5-0.6s-0.5-0.8-0.5-1.4C156.5,6.8,156.7,6.4,157.1,6z M157,13.8h3.1v19.6H157V13.8z"
      />
      <path
        d="M165.6,13.8h2.8l0.1,2.6h0.1c0.7-1,1.6-1.7,2.6-2.2s2.2-0.8,3.5-0.8c1.9,0,3.5,0.6,4.6,1.7s1.7,3,1.7,5.6v12.8h-3.1V20.7c0-1.7-0.4-2.8-1.1-3.5s-1.8-1.1-3.1-1.1c-1.1,0-2.1,0.3-3,0.9s-1.6,1.4-2.1,2.5v13.9h-3.1V13.8z"
      />
      <path
        d="M185,23.3c0-3,0.8-5.4,2.4-7.2s3.7-2.8,6.3-2.8c2.6,0,4.6,0.9,6,2.6s2.1,4.1,2.1,7.1v1.2h-14.9v-2.5h11.8v-0.4c0-1.5-0.4-2.8-1.2-3.8s-2-1.6-3.7-1.6c-1.9,0-3.3,0.7-4.2,2.1s-1.4,3.2-1.4,5.3v0.6c0,2.1,0.5,3.9,1.5,5.3s2.5,2.1,4.5,2.1c1.3,0,2.4-0.3,3.3-0.8s1.6-1.2,2.2-2l2,1.7c-0.6,0.9-1.5,1.8-2.8,2.5s-2.8,1.2-4.7,1.2c-2.9,0-5.2-0.9-6.8-2.8s-2.4-4.3-2.4-7.2V23.3z"
      />
      <path
        d="M205.8,13.8h2.8l0.1,2.6h0.1c0.5-0.8,1.2-1.6,2-2.2s1.8-0.9,3-0.9c0.3,0,0.5,0,0.9,0.1s0.5,0.1,0.7,0.2v2.9c-0.2-0.1-0.5-0.1-0.8-0.1s-0.6,0-1,0c-1.1,0-2,0.3-2.9,0.9s-1.5,1.4-1.9,2.3v13.9h-3.1V13.8z"
      />
    </g>
  </g>
</svg>
